<svg xmlns="http://www.w3.org/2000/svg" viewBox="0 0 55.67 55.53"><title>Asset 4</title><g id="Layer_2" data-name="Layer 2"><g id="Layer_1-2" data-name="Layer 1"><path d="M44.57,33.32a11.09,11.09,0,0,0-9.28,5L21.91,30.68a10,10,0,0,0,0-5.86L35.28,17.2a11.11,11.11,0,1,0-1.72-4.58l-14,7.95a11.11,11.11,0,1,0,0,14.35l14,8a11.11,11.11,0,1,0,11-9.58ZM44.57,5a6.08,6.08,0,1,1-6.08,6.08A6.08,6.08,0,0,1,44.57,5ZM11.25,33.84a6.08,6.08,0,1,1,6.08-6.08A6.08,6.08,0,0,1,11.25,33.84ZM44.57,50.5a6.08,6.08,0,1,1,6.08-6.08A6.08,6.08,0,0,1,44.57,50.5Z"/></g></g></svg>