<svg version="1" xmlns="http://www.w3.org/2000/svg" width="1422.667" height="1422.667" viewBox="0 0 1067.000000 1067.000000"><path d="M176 526.9V744h116V599h43.5l37.1 72.3 37 72.2 64.3.3c52.5.2 64.2 0 63.8-1.1-.3-.7-21.2-38.4-46.6-83.7-25.4-45.3-46.1-82.6-46.1-82.9.1-.3 4.6-3.5 10.2-7.1 26.3-16.9 45.7-44 53.8-75.5 4.2-16.2 5.4-29 4.7-50.5-.6-19.8-2.4-30.9-7.3-45.6-13.9-41.5-48.1-69.3-99.5-80.8-26.8-6-25.9-5.9-132.6-6.3l-98.3-.4v217zM351 402c25.5 2.7 41.4 11.6 46.9 26.6 4.4 11.7 5 26.5 1.6 39.3-4.7 18-18.3 30.6-39.2 36.3-7 1.9-11 2.2-38 2.6l-30.3.4V401h24.8c13.6 0 29 .5 34.2 1zM578 358v48h114v338h116V406h114v-96H578v48z"/></svg>